<?xml version="1.0" encoding="utf-8"?>
<!-- Generator: Adobe Illustrator 21.1.0, SVG Export Plug-In . SVG Version: 6.00 Build 0)  -->
<svg version="1.1" id="Ebene_1" xmlns="http://www.w3.org/2000/svg" xmlns:xlink="http://www.w3.org/1999/xlink" x="0px" y="0px"
	 viewBox="0 0 595.3 841.9" style="enable-background:new 0 0 595.3 841.9;" xml:space="preserve">
<style type="text/css">
	.st0{font-family:'Calibri';}
	.st1{font-size:24px;}
	.st2{fill:none;stroke:#000000;stroke-width:4;stroke-linecap:round;stroke-linejoin:round;stroke-miterlimit:10;}
</style>
<text transform="matrix(1 0 0 1 231 113)" class="st0 st1">Roboter</text>
<text transform="matrix(1 0 0 1 81 199)" class="st0 st1">Grundplatte</text>
<text transform="matrix(1 0 0 1 346 199)" class="st0 st1">Oberkörper</text>
<text transform="matrix(1 0 0 1 433 310)" class="st0 st1">Arm</text>
<text transform="matrix(1 0 0 1 340.7197 310)" class="st0 st1">Arm</text>
<text transform="matrix(1 0 0 1 310.2806 420.9452)" class="st0 st1">Daumen</text>
<text transform="matrix(1 0 0 1 414.5609 420.945)" class="st0 st1">Daumen</text>
<line class="st2" x1="267" y1="124" x2="159" y2="159"/>
<line class="st2" x1="269.5" y1="124" x2="377.5" y2="159"/>
<line class="st2" x1="357.7" y1="215.9" x2="357.7" y2="278.1"/>
<line class="st2" x1="454" y1="215.9" x2="454" y2="278.1"/>
<line class="st2" x1="454" y1="323.9" x2="454" y2="386.1"/>
<line class="st2" x1="357.7" y1="323.9" x2="357.7" y2="386.1"/>
</svg>
