<?xml version="1.0" encoding="utf-8"?>
<!-- Generator: Adobe Illustrator 21.1.0, SVG Export Plug-In . SVG Version: 6.00 Build 0)  -->
<svg version="1.1" id="Ebene_1" xmlns="http://www.w3.org/2000/svg" xmlns:xlink="http://www.w3.org/1999/xlink" x="0px" y="0px"
	 viewBox="0 0 595.3 841.9" style="enable-background:new 0 0 595.3 841.9;" xml:space="preserve">
<style type="text/css">
	.st0{font-family:'Calibri';}
	.st1{font-size:24px;}
	.st2{fill:none;stroke:#000000;stroke-width:4;stroke-linecap:round;stroke-linejoin:round;}
</style>
<text transform="matrix(1 0 0 1 231 113)" class="st0 st1">Roboter</text>
<text transform="matrix(1 0 0 1 81 199)" class="st0 st1">Grundplatte</text>
<text transform="matrix(1 0 0 1 346 199)" class="st0 st1">Oberkörper</text>
<text transform="matrix(1 0 0 1 381 310)" class="st0 st1">Arm</text>
<text transform="matrix(1 0 0 1 360 420.945)" class="st0 st1">Daumen</text>
<g>
	<g>
		<line class="st2" x1="267" y1="124" x2="169.9" y2="155.5"/>
		<g>
			<polygon points="169.7,147.2 159,159 174.6,162.3 			"/>
		</g>
	</g>
</g>
<g>
	<g>
		<line class="st2" x1="269.5" y1="124" x2="366.5" y2="155.5"/>
		<g>
			<polygon points="361.9,162.3 377.5,159 366.8,147.2 			"/>
		</g>
	</g>
</g>
<g>
	<g>
		<line class="st2" x1="385" y1="215.9" x2="385" y2="266.7"/>
		<g>
			<polygon points="377,264.3 385,278.1 393,264.3 			"/>
		</g>
	</g>
</g>
<g>
	<g>
		<line class="st2" x1="419" y1="215.9" x2="419" y2="266.7"/>
		<g>
			<polygon points="411,264.3 419,278.1 427,264.3 			"/>
		</g>
	</g>
</g>
<g>
	<g>
		<line class="st2" x1="404" y1="323.9" x2="404" y2="374.7"/>
		<g>
			<polygon points="396,372.3 404,386.1 412,372.3 			"/>
		</g>
	</g>
</g>
</svg>
