<?xml version="1.0" encoding="utf-8"?>
<!-- Generator: Adobe Illustrator 21.1.0, SVG Export Plug-In . SVG Version: 6.00 Build 0)  -->
<svg version="1.1" id="Ebene_1" xmlns="http://www.w3.org/2000/svg" xmlns:xlink="http://www.w3.org/1999/xlink" x="0px" y="0px"
	 viewBox="0 0 595.3 841.9" style="enable-background:new 0 0 595.3 841.9;" xml:space="preserve">
<style type="text/css">
	.st0{fill:none;stroke:#000000;stroke-width:3;stroke-linecap:round;stroke-linejoin:round;stroke-miterlimit:10;}
</style>
<rect x="159.2" y="184.6" class="st0" width="256" height="368"/>
<rect x="420.2" y="212.6" class="st0" width="62" height="305"/>
<rect x="130.2" y="212.6" class="st0" width="29" height="305"/>
<rect x="143.2" y="517.6" class="st0" width="11" height="49"/>
<rect x="432.6" y="517.6" class="st0" width="11" height="49"/>
<rect x="457.2" y="517.6" class="st0" width="11" height="49"/>
<rect x="168.2" y="552.6" class="st0" width="12" height="14"/>
<rect x="237.2" y="93.6" class="st0" width="91" height="91"/>
<rect x="246.2" y="552.6" class="st0" width="82" height="170"/>
<rect x="113.5" y="752.5" class="st0" width="290" height="9"/>
<line class="st0" x1="328.2" y1="93.6" x2="350.2" y2="115.6"/>
<line class="st0" x1="415.2" y1="184.6" x2="443.2" y2="212.6"/>
<line class="st0" x1="415.2" y1="552.6" x2="431.9" y2="536"/>
<path class="st0" d="M475.2,559.6"/>
<path class="st0" d="M468.2,566.6"/>
<path class="st0" d="M449.1,561.1"/>
<path class="st0" d="M443.6,566.6"/>
<line class="st0" x1="154.2" y1="566.6" x2="159.2" y2="561.2"/>
<line class="st0" x1="180.2" y1="566.6" x2="184.2" y2="561.8"/>
<line class="st0" x1="113.5" y1="752.5" x2="182.2" y2="683.8"/>
<line class="st0" x1="403.5" y1="752.5" x2="472.2" y2="683.8"/>
<path class="st0" d="M472.2,683.8"/>
<line class="st0" x1="182.2" y1="683.8" x2="246.2" y2="683.8"/>
<path class="st0" d="M159.2,553.2"/>
<path class="st0" d="M159.2,561.2"/>
<line class="st0" x1="184.2" y1="552.6" x2="184.2" y2="561.8"/>
<line class="st0" x1="159.2" y1="552.6" x2="159.2" y2="560.6"/>
<line class="st0" x1="448.4" y1="518.3" x2="448.4" y2="561.8"/>
<line class="st0" x1="473.4" y1="518.3" x2="473.4" y2="561.5"/>
<line class="st0" x1="443.6" y1="566.6" x2="448.4" y2="561.8"/>
<line class="st0" x1="468.2" y1="566.6" x2="473.4" y2="561.5"/>
<line class="st0" x1="350.2" y1="115.6" x2="350.2" y2="184.6"/>
<line class="st0" x1="492.7" y1="223.1" x2="492.7" y2="507.1"/>
<line class="st0" x1="482.2" y1="212.6" x2="492.7" y2="223.1"/>
<line class="st0" x1="482.2" y1="517.6" x2="492.7" y2="507.1"/>
<line class="st0" x1="403.5" y1="761.5" x2="472.2" y2="692.2"/>
<line class="st0" x1="472.2" y1="683.8" x2="472.2" y2="692.2"/>
<line class="st0" x1="182.2" y1="683.8" x2="246.2" y2="683.8"/>
<line class="st0" x1="341.6" y1="552.6" x2="341.6" y2="709.3"/>
<line class="st0" x1="328.2" y1="722.6" x2="341.6" y2="709.3"/>
<line class="st0" x1="472.2" y1="683.8" x2="341.6" y2="683.8"/>
</svg>
